<svg xmlns="http://www.w3.org/2000/svg" width="500" height="500" viewBox="0 0 500 500" fill="none"><metadata><rdf:RDF xmlns:rdf="http://www.w3.org/1999/02/22-rdf-syntax-ns#" xmlns:dc="http://purl.org/dc/elements/1.1/"><rdf:Description><dc:creator>RealFaviconGenerator</dc:creator><dc:source>https://realfavicongenerator.net</dc:source></rdf:Description></rdf:RDF></metadata><circle cx="250" cy="250" r="225" fill="#561C24"></circle><circle cx="250" cy="250" r="225" fill="#53161D" fill-opacity="0.2"></circle><mask id="mask0_13_2" style="mask-type:alpha" maskUnits="userSpaceOnUse" x="25" y="25" width="450" height="450">
<circle cx="250" cy="250" r="225" fill="#561C24"></circle>
<circle cx="250" cy="250" r="225" fill="#53161D" fill-opacity="0.2"></circle>
</mask><g mask="url(#mask0_13_2)">
<path d="M85.3948 500.555V476.553H96.5953C104.062 476.553 110.64 475.664 116.33 473.887C122.374 472.109 127.175 468.553 130.73 463.219C134.286 457.886 136.064 449.886 136.064 439.218V178.94C136.064 168.628 134.108 160.983 130.197 156.005C126.641 151.027 121.841 147.827 115.796 146.405C110.107 144.627 103.707 143.738 96.5953 143.738H85.3948V119.737H239.002C285.226 119.737 319.361 129.693 341.407 149.605C363.452 169.517 374.475 196.896 374.475 231.742C374.475 247.743 371.808 263.032 366.475 277.611C361.497 291.834 353.141 304.634 341.407 316.013C330.028 327.391 314.917 336.458 296.071 343.214C277.226 349.614 254.292 352.814 227.268 352.814H197.933V441.885C197.933 451.841 199.711 459.308 203.267 464.286C207.178 469.264 212.156 472.642 218.201 474.42C224.246 475.842 230.646 476.553 237.402 476.553H259.27V500.555H85.3948ZM221.934 326.146C237.224 326.146 250.38 324.546 261.403 321.346C272.426 317.79 281.315 312.457 288.071 305.345C294.827 297.878 299.805 288.278 303.005 276.544C306.205 264.81 307.805 250.587 307.805 233.875C307.805 213.963 305.316 197.607 300.338 184.807C295.36 172.006 287.182 162.583 275.804 156.539C264.425 150.138 249.136 146.938 229.935 146.938H197.933V326.146H221.934Z" fill="#E8D8C4"></path>
</g></svg>